<svg viewBox="0 -32 1828 90" xmlns="http://www.w3.org/2000/svg">
  <defs/>
  <rect x="1" y="-26" width="47" height="35" rx="2" ry="2" style="fill: #cfff95; stroke: #9ccc65;"/>
  <rect x="70" y="-26" width="44" height="35" rx="2" ry="2" style="fill: #73e8ff; stroke: #29b6f6;"/>
  <rect x="124" y="-26" width="826" height="35" rx="2" ry="2" style="fill: #ffd95b; stroke: #ffa726;"/>
  <rect x="960" y="-26" width="867" height="35" rx="2" ry="2" style="fill: #df78ef; stroke: #ab47bc;"/>
  <text style="white-space: pre; fill: #000000; font-family: sans-serif; font-size: 24px;" x="1" y="0">mpv://play/aHR0cHM6Ly93d3cueW91dHViZS5jb20vd2F0Y2g_dj1HZ2tuMmY1ZS1JVQ==/?cookies=www.youtube.com.txt&amp;profile=low-latency&amp;quality=best&amp;v_codec=av01</text>
  <text style="white-space: pre; fill: #000000; font-family: sans-serif; font-size: 16px;" x="19" y="50">Scheme<tspan x="14.138999938964844" dy="1em">​</tspan></text>
  <text style="white-space: pre; fill: #000000; font-family: sans-serif; font-size: 16px;" x="87" y="50">Plugins<tspan x="14.138999938964844" dy="1em">​</tspan></text>
  <text style="white-space: pre; fill: #000000; font-family: sans-serif; font-size: 16px;" x="162" y="50">Encoded Video URL<tspan x="14.138999938964844" dy="1em">​</tspan></text>
  <text style="white-space: pre; fill: #000000; font-family: sans-serif; font-size: 16px;" x="1002" y="50">Parameters (Optional)<tspan x="14.138999938964844" dy="1em">​</tspan></text>
  <path d="M 24.496 11.897 H 39.483 L 39.483 8.397 L 49.483 13.397 L 39.483 18.397 L 39.483 14.897 H 24.496 V 11.897 Z" style="fill: #cfff95; stroke: #9ccc65;" transform="matrix(0, 1, -1, 0, 37, -15)"/>
  <path d="M 24.496 11.897 H 39.483 L 39.483 8.397 L 49.483 13.397 L 39.483 18.397 L 39.483 14.897 H 24.496 V 11.897 Z" style="fill: #73e8ff; stroke: #29b6f6;" transform="matrix(0, 1, -1, 0, 105, -15)"/>
  <path d="M 24.496 11.897 H 39.483 L 39.483 8.397 L 49.483 13.397 L 39.483 18.397 L 39.483 14.897 H 24.496 V 11.897 Z" style="fill: #ffd95b; stroke: #ffa726;" transform="matrix(0, 1, -1, 0, 180, -15)"/>
  <path d="M 24.496 11.897 H 39.483 L 39.483 8.397 L 49.483 13.397 L 39.483 18.397 L 39.483 14.897 H 24.496 V 11.897 Z" style="fill: #df78ef; stroke: #ab47bc;" transform="matrix(0, 1, -1, 0, 1020, -15)"/>
</svg>
